<?xml version="1.0" standalone="no"?>
<!DOCTYPE svg PUBLIC "-//W3C//DTD SVG 20010904//EN"
 "http://www.w3.org/TR/2001/REC-SVG-20010904/DTD/svg10.dtd">
<svg version="1.0" xmlns="http://www.w3.org/2000/svg"
 width="500.000000pt" height="500.000000pt" viewBox="0 0 500.000000 500.000000"
 preserveAspectRatio="xMidYMid meet">
<metadata>
Created by potrace 1.14, written by Peter Selinger 2001-2017
</metadata>
<g transform="translate(0.000000,500.000000) scale(0.100000,-0.100000)"
fill="#000000" stroke="none">
<path d="M2329 4996 c-2 -2 -35 -6 -74 -10 -38 -3 -83 -8 -100 -11 -216 -39
-292 -57 -440 -107 -458 -155 -869 -446 -1176 -833 -228 -286 -403 -660 -480
-1020 -7 -33 -13 -62 -14 -65 -1 -5 -12 -77 -21 -137 -16 -108 -21 -200 -18
-373 1 -107 5 -204 7 -215 3 -11 8 -47 12 -80 5 -48 30 -175 60 -305 26 -115
120 -353 196 -500 251 -482 642 -859 1134 -1096 267 -128 533 -204 815 -232
147 -14 580 -5 609 13 4 2 34 7 66 10 33 4 63 9 66 11 3 2 19 6 36 8 201 36
548 169 737 284 37 23 70 42 72 42 2 0 43 28 91 62 297 209 552 478 729 768
180 295 319 698 349 1012 l7 68 -38 1 c-89 2 -261 -2 -294 -7 -158 -23 -272
-97 -357 -233 -221 -349 -458 -613 -690 -769 -34 -23 -67 -42 -72 -42 -6 0
-11 -3 -11 -7 0 -5 -10 -13 -23 -19 -12 -5 -53 -26 -92 -46 -91 -47 -303 -110
-445 -133 -19 -3 -46 -7 -60 -10 -14 -3 -59 -7 -100 -10 -41 -3 -100 -9 -130
-12 -78 -8 -281 -8 -375 0 -82 7 -104 10 -191 28 -28 5 -64 12 -80 15 -71 13
-252 80 -349 129 -264 134 -463 330 -593 583 -46 90 -113 265 -126 332 -2 14
-9 48 -14 75 -21 105 -26 165 -26 325 -1 190 5 267 33 400 31 146 92 319 138
392 12 21 23 40 23 43 0 3 26 45 58 93 105 160 291 327 472 424 128 68 335
137 465 154 28 3 59 8 70 11 39 9 371 12 435 3 113 -15 209 -36 304 -65 67
-20 218 -85 237 -101 8 -8 19 -14 23 -14 4 0 39 -22 79 -49 257 -174 423 -442
465 -751 8 -59 8 -211 -1 -280 -6 -54 -34 -146 -57 -192 -46 -87 -141 -163
-255 -201 -141 -48 -191 -51 -1102 -51 -469 -1 -853 -5 -853 -10 0 -17 32
-133 51 -184 126 -344 421 -561 829 -608 116 -13 387 -7 481 11 12 2 47 7 78
11 242 28 504 181 720 420 101 112 203 251 286 389 127 210 261 321 455 374
92 26 208 35 452 35 l188 1 -5 45 c-7 52 -25 176 -32 205 -2 11 -6 31 -9 45
-119 594 -504 1169 -1019 1522 -316 217 -697 367 -1050 413 -27 4 -61 9 -75
12 -30 6 -475 14 -481 9z"/>
<path d="M2327 3543 c-1 -1 -27 -4 -57 -7 -82 -9 -108 -15 -186 -41 -247 -83
-459 -278 -558 -512 -28 -68 -55 -156 -61 -204 l-4 -34 792 1 c728 1 796 2
842 18 28 10 59 25 69 35 32 27 56 92 56 152 1 289 -218 498 -604 575 -45 9
-283 23 -289 17z"/>
</g>
</svg>
