<svg xmlns="http://www.w3.org/2000/svg" viewBox="0 0 250.03 65.17">
	<path d="M19.12,43.21A20.43,20.43,0,0,0,40.36,24.68h-1c-1.87,0-3.51,0-4.8,2.32a.24.24,0,0,1-.06.11,23,23,0,0,1-2.94,3.73,12.93,12.93,0,0,1-4.29,3.1h0l-.23.17h-.17a18.4,18.4,0,0,1-4,.91h-.34a18,18,0,0,1-2.32.17c-7.79,0-12.82-4.81-12.82-12.26s4.86-12.26,12.14-12.26c6.27,0,10.68,3.79,10.68,9.21,0,3.33-1.64,4.69-5.59,4.69H11.78c.68,4.12,3.84,6.55,8.58,6.55a17.91,17.91,0,0,0,2.83-.23.54.54,0,0,0,.28-.05h.17l.9-.17a11.1,11.1,0,0,0,4.3-2.77,20.17,20.17,0,0,0,2.37-3c.22-.4.39-.62.51-.85s.28-.45.39-.62C34,21,36.18,21,38.49,21h1.92A20.1,20.1,0,0,0,21.32,2.77,20.43,20.43,0,0,0,0,22,20.13,20.13,0,0,0,19,43.2ZM11.78,21h0a7.49,7.49,0,0,1,7.68-6.44c3.28,0,6.55,1.64,6.55,4.69,0,.9-.17,1.75-2.31,1.75Z" transform="translate(0.03 0)"/>
	<path d="M141.85,65.17a6.72,6.72,0,1,0-6.72-6.72A6.72,6.72,0,0,0,141.85,65.17Z" transform="translate(0.03 0)"/>
	<path
		d="M238,58.06c-1.07-.4-2-.62-2-1.64s.79-1.35,1.58-1.35a5.55,5.55,0,0,1,2.21.62l.34-.57a6,6,0,0,0-2.55-.73,2,2,0,0,0-2.23,1.73,1.23,1.23,0,0,0,0,.27c0,1.41,1.13,1.86,2.2,2.2,1.24.46,2.26.85,2.26,1.92a1.52,1.52,0,0,1-1.61,1.43h-.09a5.48,5.48,0,0,1-2.54-.85l-.34.56a5.64,5.64,0,0,0,2.88,1,2.16,2.16,0,0,0,2.41-1.89,2.29,2.29,0,0,0,0-.25C240.4,59,239,58.4,238,58.06ZM221.59,62h0c-1.86,0-2.43-1.53-2.43-3.45s.57-3.44,2.43-3.44,2.41,1.48,2.41,3.4S223.4,62,221.59,62Zm0-7.57h0c-2.31,0-3.16,1.86-3.16,4.12s.85,4.12,3.16,4.12,3.16-1.86,3.16-4.12S223.91,54.43,221.59,54.43ZM207.25,56.8h0c0,1.19-.85,1.64-2,1.64h-2V55.18h2.09c1.07-.06,1.92.39,1.92,1.58Zm-.06,5.7H208L205.89,59A2.07,2.07,0,0,0,208,57V56.8c0-1.69-1.19-2.26-2.71-2.26H202.5v8h.68V59h2l2,3.5Zm-16.27-5.7h0c0,1.19-.84,1.64-2,1.64h-2V55.18H189c1.13-.06,1.92.39,1.92,1.58Zm0,5.7h.79L189.57,59a2.07,2.07,0,0,0,2.09-2V56.8c0-1.69-1.19-2.26-2.71-2.26h-2.77v8h.68V59h2l2,3.5Zm-18.41-7.23h0L174,59.81h-3.16l1.58-4.58ZM175,62.46h.73l-2.93-8h-.74l-2.88,8h.74l.73-2.09h3.61Zm-15.65-6.89h0a4.74,4.74,0,0,0-2.76-1.18c-1.53,0-2.88,1.24-2.88,4.12s1.35,4.12,2.88,4.12a4.94,4.94,0,0,0,2.76-1.18l-.39-.51a4.45,4.45,0,0,1-2.32,1c-1.24,0-2.14-1.25-2.14-3.45s.9-3.44,2.14-3.44a4.45,4.45,0,0,1,2.32,1l.39-.51Z"
		transform="translate(0.03 0)"/>
	<path d="M81.75,10.73a12.24,12.24,0,1,0,.27,0Zm8.08,12.2h0a8.08,8.08,0,0,1-16.15.57,5.42,5.42,0,0,1,0-.57,8.08,8.08,0,1,1,16.15-.57A5.42,5.42,0,0,1,89.83,22.93Z" transform="translate(0.03 0)"/>
	<path d="M123.83,10.73a20.3,20.3,0,0,0-6.5,1.19,5.11,5.11,0,0,0-2.08,1.47,9.09,9.09,0,0,0-6.78-2.66,20,20,0,0,0-6.5,1.19,4.86,4.86,0,0,0-3.44,5.14V35.13h.34a8.08,8.08,0,0,0,3.72-.74l.17-.11V18a2.49,2.49,0,0,1,1.64-2.71,11.08,11.08,0,0,1,3.73-.68c3.56,0,5.7,2.54,5.7,6.77V35.07h.34a8,8,0,0,0,3.73-.73l.17-.11V18a2.47,2.47,0,0,1,1.64-2.71,11,11,0,0,1,3.72-.68c3.56,0,5.71,2.54,5.71,6.77V35.07h.34a8.27,8.27,0,0,0,3.73-.73l.16-.11v-13c.12-6.38-3.67-10.45-9.54-10.45Z" transform="translate(0.03 0)"/>
	<path d="M149.53,10.73a21,21,0,0,0-6.84,1.19,5,5,0,0,0-3.55,5.14V44.73h.33A8.27,8.27,0,0,0,143.2,44l.17-.12V33.49a13.14,13.14,0,0,0,6.5,1.58c6.77,0,11.35-4.91,11.35-12.2S156.7,10.73,149.53,10.73ZM157,22.93h0c0,5-2.88,8.19-7.51,8.19a13.06,13.06,0,0,1-4.46-.79,2.19,2.19,0,0,1-1.64-2.15V18a2.45,2.45,0,0,1,1.75-2.71,12,12,0,0,1,4.07-.68c4.91,0,7.79,3.1,7.79,8.3Z" transform="translate(0.03 0)"/>
	<path d="M170.08,27.28V0h-.33A8.63,8.63,0,0,0,166,.73l-.17.12V27.56c0,3.5.79,6,2.49,8.08l.11.17.23-.06a7.54,7.54,0,0,0,3.22-1.64l.22-.17-.17-.22a10.45,10.45,0,0,1-1.81-6.44Z" transform="translate(0.03 0)"/>
	<path d="M187,10.73c-7.23,0-12.08,4.91-12.08,12.2s5,12.2,12.76,12.2a22.13,22.13,0,0,0,6.8-1.13l.23-.06v-.22a8.5,8.5,0,0,0-.62-3.34l-.12-.22-.28.06a22,22,0,0,1-5.87.9c-4.69,0-7.85-2.43-8.53-6.55h12.82c3.95,0,5.54-1.36,5.54-4.69,0-5.37-4.41-9.15-10.68-9.15Zm6.44,8.53h0c0,.85-.17,1.75-2.32,1.75H179.23a7.46,7.46,0,0,1,7.68-6.44c3.22,0,6.5,1.58,6.5,4.69Z" transform="translate(0.03 0)"/>
	<path d="M207.47,3.78h-.34a8.49,8.49,0,0,0-3.78.74l-.17.11v6.55h-3.56l-.11.17a7.85,7.85,0,0,0-.68,3.45v.34h4.29V26.26a12,12,0,0,0,.74,5c1.47,3.16,4.91,3.84,7.57,3.84a11.16,11.16,0,0,0,1.41-.11H213l.05-.17a7.34,7.34,0,0,0,.68-3.33v-.34h-.34c-4.29-.06-6-.62-6-4.18V15.08h5.76l.11-.17a7.85,7.85,0,0,0,.68-3.45v-.33h-6.55V3.78Z" transform="translate(0.03 0)"/>
	<path d="M228.09,10.73a12.24,12.24,0,1,0,.27,0Zm8.07,12.2h0A8.08,8.08,0,1,1,220,23.5a5.42,5.42,0,0,1,0-.57,8.08,8.08,0,0,1,16.15-.57A5.42,5.42,0,0,1,236.16,22.93Z" transform="translate(0.03 0)"/>
	<path d="M240.74,9.94a4.63,4.63,0,1,1,9.26,0h0a4.63,4.63,0,1,1-9.26,0Zm8.53,0h0a3.87,3.87,0,1,1-3.87-3.87A3.87,3.87,0,0,1,249.27,9.94Zm-5.65,2.15h0V7.68a.38.38,0,0,1,.37-.39h1.77a1.53,1.53,0,0,1,1.69,1.35,1,1,0,0,1,0,.17,1.35,1.35,0,0,1-1,1.41l.85,1.7a.46.46,0,0,1,.06.28c0,.17-.23.34-.4.34a.32.32,0,0,1-.34-.23l-1-2h-1.07c-.06,0-.06,0-.06,0v1.7a.4.4,0,0,1-.35.45h0c-.34,0-.51-.17-.51-.45Zm3-3.28h0c0-.51-.22-.79-.9-.79h-1.24c-.06,0-.06,0-.06.06V9.54c0,.06,0,.06.06.06h1.24C246.4,9.6,246.62,9.32,246.62,8.81Z" transform="translate(0.03 0)"/>
	<path d="M47.87,22.93c0-7.06,4.91-11.86,12.48-11.86a22.45,22.45,0,0,1,6.55,1.07,6.8,6.8,0,0,1-.62,3.11,21.14,21.14,0,0,0-5.7-.85c-5.54,0-9.1,3.39-9.1,8.59s3.56,8.52,9,8.52a22.12,22.12,0,0,0,5.93-1A7.44,7.44,0,0,1,67,33.77a21.55,21.55,0,0,1-6.66,1.13c-7.57-.11-12.48-5-12.48-12Z" transform="translate(0.03 0)"/>
</svg>
