<svg xmlns="http://www.w3.org/2000/svg" viewBox="0 0 512 512"><path d="M113.6,193.06,26.39,142.72a254.34,254.34,0,0,0,.36,226.36L113.59,319a154.28,154.28,0,0,1,0-125.89Z" transform="translate(0 0)"/><path d="M423.92,62.77a256,256,0,0,0-380.79,51l87.27,50.39c28.38-38.71,74-64,125.6-64a154.77,154.77,0,0,1,99,35.7,16.55,16.55,0,0,0,22.26-1.09l47.53-47.53A16.76,16.76,0,0,0,423.92,62.77Z" transform="translate(0 0)"/><path d="M510.25,226.38a16.8,16.8,0,0,0-16.66-14.89H283.83a16.7,16.7,0,0,0-16.7,16.7V294.9a16.7,16.7,0,0,0,16.7,16.7H401.37a157,157,0,0,1-53.57,70l49.93,86.48A261.49,261.49,0,0,0,503,321.76,246.51,246.51,0,0,0,510.25,226.38Z" transform="translate(0 0)"/><path d="M318.93,398.38A154.17,154.17,0,0,1,256,411.83c-51.62,0-97.25-25.33-125.61-64L43.49,398C89.25,466.14,166.91,512,256,512a250.9,250.9,0,0,0,112.89-27.08Z" transform="translate(0 0)"/></svg>