<svg xmlns="http://www.w3.org/2000/svg" viewBox="0 0 368.08 512">
	<path d="M337.9,358.82l23.42-38,42.25-14.41L408.25,262,440,230.75l-15.12-42,15.12-42-31.79-31.29-4.68-44.38L361.32,56.65l-23.42-38L293.62,24,256,0,218.38,24,174.1,18.66l-23.42,38L108.43,71.06l-4.68,44.38L72,146.74l15.12,42L72,230.75,103.75,262l4.68,44.38,42.25,14.41,23.42,38,44.28-5.34,37.62,24,37.62-24ZM126.57,188.74c0-71.36,58.06-129.43,129.43-129.43s129.43,58.07,129.43,129.43a129.43,129.43,0,0,1-258.86,0Z" transform="translate(-71.96 0)"/>
	<path d="M256,89.33a99.41,99.41,0,1,0,99.41,99.41A99.52,99.52,0,0,0,256,89.33Z" transform="translate(-71.96 0)"/>
	<path d="M211.3,384.57l-52.68,6.36-27.83-45.17-9.47-3.23L80.51,470.1l73.48-4L211.47,512,245.3,406.27Z" transform="translate(-71.96 0)"/>
	<path d="M381.21,345.76l-27.83,45.17-52.68-6.36-34,21.7L300.53,512,358,466.06l73.48,4L390.68,342.53Z" transform="translate(-71.96 0)"/>
</svg>
