<svg xmlns="http://www.w3.org/2000/svg" viewBox="0 0 487.4 456.34"><path d="M379.23,46.25c-87.85-59-208.23-27.89-275,49.48C79.58,124.35,66,156.43,59.8,190c-3.62-3.71-7.3-7.37-11.11-10.93-24.56-22.92-65.84,11.29-41,34.44a400.57,400.57,0,0,1,35.79,38.56c3.42,4.16,6.81,8.35,10.11,12.61,3,3.93,6.08,7.85,9,11.84,4.32,5.85,11.51,8.49,18.89,8.54,9.18,1.93,19-1,25.23-11.72,1.29-2.21,2.67-4.32,4-6.46a204.81,204.81,0,0,1,20.51-27.25,216.76,216.76,0,0,1,43.19-37c12.27-8,11.6-27,2.86-36.52C166.8,154.64,151.4,156,139.13,164a244.69,244.69,0,0,0-22.45,16.66c1.51-5.15,3.26-10.27,5.3-15.37,19.58-48.85,73-85.5,125.14-96.46,87.35-18.38,157.09,55.42,178.05,128.53,24.27,84.7-12.12,201.84-113.93,220.7-61.6,11.41-120.91-18.06-160.15-63-.13.07-.27.13-.39.21-.29-.66-.7-1.23-1-1.86a25.43,25.43,0,0,0-5.91-7.26,27.55,27.55,0,0,0-23-6c-14.51,2.79-24.38,16.66-21.72,30.47l.49,2.53a24,24,0,0,0,3.39,8.29,30.28,30.28,0,0,0,4.64,5.48,252.72,252.72,0,0,0,159.56,83.67C383,484.17,466.15,390.35,484,288.94,500.14,197.75,457.24,98.63,379.23,46.25Z" transform="translate(0 -15.53)"/></svg>