<svg xmlns="http://www.w3.org/2000/svg" viewBox="0 0 488.75 488.75"><path d="M154.24,500.27H32V337.49H154.24ZM72.75,459.73h40.74V378.24H72.75Z" transform="translate(-11.73 -11.73)"/><path d="M480,500.27H357.76V174.51H480Zm-81.49-40.54h40.74V215.25H398.51Z" transform="translate(-11.73 -11.73)"/><path d="M317,500.27H195V256H317Zm-81.28-40.54h41.6v-163H236.8Z" transform="translate(-11.73 -11.73)"/><path d="M11.73,459.73H500.48v40.75H11.73Z" transform="translate(-11.73 -11.73)"/><path d="M235.73,215.25A101.76,101.76,0,1,1,337.49,113.49h0A102,102,0,0,1,235.73,215.25Zm0-163a61.23,61.23,0,1,0,61,61.44v-.22A61.44,61.44,0,0,0,235.73,52.27Z" transform="translate(-11.73 -11.73)"/><path d="M78.63,241.66l81.45-81.44L188.89,189l-81.45,81.44Z" transform="translate(-11.73 -11.73)"/></svg>